<?xml version="1.0" encoding="UTF-8"?>
<svg width="94px" height="81px" viewBox="0 0 94 81" version="1.1" xmlns="http://www.w3.org/2000/svg" xmlns:xlink="http://www.w3.org/1999/xlink">
    <!-- Generator: Sketch 62 (91390) - https://sketch.com -->
    <title>projects</title>
    <desc>Created with Sketch.</desc>
    <g id="Page-1" stroke="none" stroke-width="1" fill="none" fill-rule="evenodd">
        <g id="projects" fill="#00B289" fill-rule="nonzero">
            <path d="M15.716797,-2.13e-07 C12.427399,-2.13e-07 9.716797,2.71060179 9.716797,5.99999979 L9.716797,12.0039058 L6.2714844,12.0039058 C2.9820712,12.0039058 0.2695312,14.7086478 0.2695312,17.9980468 L0.8320312,75.0292968 C0.8837612,78.2798798 3.542459,81.0019528 6.8320312,81.0019528 L78.28125,81.0019528 C81.570664,81.0019528 84.283203,78.2893978 84.283203,74.9999998 L84.283203,68.9999998 L87.728516,68.9999998 C91.017914,68.9999998 93.726562,66.2882648 93.726562,62.9999998 L93.726562,15.9999998 C93.726562,12.7117728 91.017937,9.99999979 87.728516,9.99999979 L53.507812,9.99999979 L49.060547,1.10546879 C48.721664,0.427906787 48.029067,-2.13e-07 47.271484,-2.13e-07 L15.716797,-2.13e-07 Z M15.716797,3.99999979 L46.035156,3.99999979 L50.482422,12.8945308 C50.821304,13.5720868 51.513901,14.0000518 52.271484,13.9999998 L87.728516,13.9999998 C88.871097,13.9999998 89.726562,14.8562388 89.726562,15.9999998 L89.726562,62.9999998 C89.726562,64.1437978 88.87112,64.9999998 87.728516,64.9999998 L84.283203,64.9999998 L84.283203,27.9999998 C84.283203,24.7106018 81.570664,21.9980468 78.28125,21.9980468 L44.066406,21.9980468 L39.615234,13.1035158 C39.275352,12.4294868 38.584952,12.0042178 37.830078,12.0039058 L13.716797,12.0039058 L13.716797,5.99999979 C13.716797,4.85741079 14.574195,3.99999979 15.716797,3.99999979 Z M6.2714844,15.9960938 L36.595703,15.9960938 L41.041016,24.8925778 C41.378723,25.5696418 42.069562,25.9982038 42.826172,25.9999998 L78.28125,25.9999998 C79.423835,25.9999998 80.283203,26.8574108 80.283203,27.9999998 L80.283203,74.9999998 C80.283203,76.1426268 79.423835,76.9999998 78.28125,76.9999998 L6.8320312,76.9999998 C5.6896033,76.9999998 4.8508253,76.1516168 4.8320312,74.9707028 L4.2714844,17.9980468 C4.2714844,16.8554958 5.1288973,15.9960938 6.2714844,15.9960938 Z" id="Shape"></path>
        </g>
    </g>
</svg>