<?xml version="1.0" encoding="UTF-8"?>
<svg width="95px" height="99px" viewBox="0 0 95 99" version="1.1" xmlns="http://www.w3.org/2000/svg" xmlns:xlink="http://www.w3.org/1999/xlink">
    <!-- Generator: Sketch 61.1 (89650) - https://sketch.com -->
    <title>ill_Project Organization</title>
    <desc>Created with Sketch.</desc>
    <g id="Page-1" stroke="none" stroke-width="1" fill="none" fill-rule="evenodd">
        <g id="Projects-&amp;-Client-CRM" transform="translate(-671.000000, -1143.000000)">
            <g id="02.Save-hours-running" transform="translate(250.000000, 950.000000)">
                <g id="Project-Organization" transform="translate(421.000000, 193.000000)">
                    <g id="ill_Project-Organization">
                        <path d="M27.2282334,81.3863455 C27.777117,83.5210987 29.4651221,85.267715 31.5328344,85.8421576 C34.3336447,86.6261943 36.9126459,85.4423766 38.3525255,83.3658439 L38.4239556,99 L70.834406,98.8408639 C73.6953679,98.8292197 76.0149652,96.4188893 76,93.4574045 L75.8495482,60 L60.8041216,60.073746 C62.202647,61.2536823 63.1161999,63.0274682 63.1237189,65.0302548 C63.1425163,69.1755573 59.3830394,72.4242635 55.1874631,71.3064291 C53.1535861,70.7669188 51.4693405,69.0940486 50.8715836,67.0136346 C50.0708151,64.2384554 51.0520385,61.6728702 52.8603469,60.1164411 L38.2472602,60.1824244 L38.3186902,75.812699 C37.1758093,74.194168 35.3223871,73.1345541 33.2396369,73.1461982 C29.2245156,73.1656051 26.1154282,77.0702627 27.2282334,81.3863455" id="Fill-7" fill="#A7E0FE"></path>
                        <path d="M27.2282334,80.8379777 C27.777117,82.9179936 29.4651221,84.6198248 31.5328344,85.1795382 C34.3336447,85.9434713 36.9126459,84.790008 38.3525255,82.7667197 L38.4239556,98 L70.834406,97.8449443 C73.6953679,97.8335987 76.0149652,95.4850717 76,92.5995223 L75.8495482,60 L60.8041216,60.0718551 C62.202647,61.2215366 63.1161999,62.9498408 63.1237189,64.9012739 C63.1425163,68.9402866 59.3830394,72.1056927 55.1874631,71.0165207 C53.1535861,70.4908439 51.4693405,68.8608678 50.8715836,66.8337978 C50.0708151,64.1297771 51.0520385,61.6299761 52.8603469,60.1134554 L38.2472602,60.1777468 L38.3186902,75.4072452 C37.1758093,73.830215 35.3223871,72.7977707 33.2396369,72.8091162 C29.2245156,72.8280255 26.1154282,76.6325637 27.2282334,80.8379777 Z" id="Stroke-9" stroke="#A7E0FE" stroke-width="0.5" stroke-linecap="round" stroke-linejoin="round"></path>
                        <path d="M2.43390825,61.0132658 L2.58345479,92.5358709 C2.58719345,93.6075254 2.99844645,94.6145767 3.75365649,95.367015 C4.50138921,96.1194533 5.48465773,96.4234688 6.54643819,96.526074 L37.56613,96.3778665 L37.51005,85.0190881 C36.4258376,85.6385197 35.2070333,85.9767369 33.943365,85.9843373 L33.9059783,85.9843373 C31.5917456,85.9843373 29.4494913,84.9202831 28.0250605,83.0619885 C26.5931524,81.1884931 26.1146034,78.77157 26.7127896,76.4192502 C27.3296691,73.9643252 29.2812515,71.9046204 31.6777348,71.1825836 C33.6779199,70.5669522 35.7229689,70.8063644 37.4427541,71.7678134 L37.4016288,60.8422571 L23.5536189,60.9106606 C23.1124566,60.880259 22.5591344,60.5762435 22.3946332,60.0632174 C22.230132,59.5539915 22.4058491,58.995363 22.8320568,58.679947 C24.1592824,57.6994971 24.9144924,56.18702 24.9070151,54.5415363 C24.8995378,52.9492552 24.1779757,51.4785803 22.9330007,50.5133311 C21.6842871,49.5404816 20.0579684,49.2364661 18.495207,49.6582876 L18.4914684,49.6582876 C16.8539337,50.1029102 15.5042762,51.4671797 15.0593752,53.1392649 C14.3714611,55.715796 15.6052201,57.7032972 16.9847869,58.7027481 C17.4109946,59.014364 17.5941891,59.5729924 17.4334266,60.0860186 C17.272664,60.5914443 16.8090697,60.9410621 16.2819182,60.9448623 L2.43390825,61.0132658 Z M6.52400621,99 C4.83413027,99 3.24145958,98.3311659 2.04134857,97.1227044 C0.830021565,95.8990421 0.160800782,94.2801597 0.153323455,92.5472714 L1.90257489e-05,59.7896035 C-0.00370041553,59.1093688 0.538405805,58.5507404 1.20762659,58.5469402 L13.5265231,58.4899373 C12.4796973,56.7418483 12.1581722,54.594739 12.7152331,52.4970322 C13.3807152,49.9889044 15.4033322,47.9368 17.8708502,47.2717661 C20.1663897,46.6447342 22.5591344,47.1159582 24.4060342,48.5486311 C26.2566726,49.9851043 27.3221918,52.1664153 27.3371464,54.5301357 C27.3408851,55.9172063 26.9670187,57.2586746 26.2791046,58.4291342 L38.6017398,58.3645309 C38.8522303,58.3531303 39.233574,58.4937375 39.4616324,58.7255493 C39.6934296,58.9573611 39.8205441,59.268977 39.8242828,59.5995938 L39.8878401,74.3747461 C39.8878401,74.8953726 39.5700537,75.3627964 39.0877661,75.5414055 C38.6129558,75.7162144 38.0596336,75.5718071 37.7343699,75.1689866 C36.4071443,73.5425038 34.4069593,72.9344728 32.3731263,73.5501041 C30.7767169,74.0327287 29.475662,75.4007984 29.064409,77.0386818 C28.6606333,78.6385632 28.9784197,80.2802468 29.9429949,81.5419111 C30.9000928,82.7959749 32.3469556,83.5142115 33.9059783,83.5142115 L33.9284103,83.5142115 C35.4051824,83.5066111 36.8034426,82.8149759 37.7717565,81.6217151 C38.0932816,81.2150944 38.6428651,81.0668869 39.1176754,81.2378956 C39.599963,81.4127045 39.9214881,81.8763281 39.9252267,82.3969546 L40,97.6015288 C40,97.9321456 39.8766241,98.2437615 39.644827,98.4755733 C39.4205071,98.7111853 39.1139367,98.8403919 38.7924117,98.8441921 L6.56139285,99 L6.52400621,99 Z" id="Fill-11" fill="#00B388"></path>
                        <path d="M22.8621215,23.428557 L15.3675726,23.428557 C14.6930632,23.428557 14.1497084,22.8830657 14.1497084,22.2142785 C14.1497084,21.541755 14.6930632,21 15.3675726,21 L22.8621215,21 C23.5366309,21 24.0799857,21.541755 24.0799857,22.2142785 C24.0799857,22.8830657 23.5366309,23.428557 22.8621215,23.428557 M37.8512193,23.428557 L30.3566704,23.428557 C29.682161,23.428557 29.1388062,22.8830657 29.1388062,22.2142785 C29.1388062,21.541755 29.682161,21 30.3566704,21 L37.8512193,21 C38.5257287,21 39.0690835,21.541755 39.0690835,22.2142785 C39.0690835,22.8830657 38.5257287,23.428557 37.8512193,23.428557 M1.64505349,26.53711 C1.48392069,26.53711 1.31529334,26.5034838 1.15790781,26.4324952 C0.543354797,26.1672221 0.258561938,25.4535999 0.528365699,24.8333838 C1.54762435,22.5057053 3.84845087,21 6.39285023,21 L7.87302365,21 C8.54753305,21 9.09088785,21.541755 9.09088785,22.2142785 C9.09088785,22.8830657 8.54753305,23.428557 7.87302365,23.428557 L6.39285023,23.428557 C4.81899496,23.428557 3.39128339,24.3626174 2.76174128,25.8048066 C2.56313573,26.2606281 2.1134628,26.53711 1.64505349,26.53711 M38.7018506,37.5253963 C38.0273412,37.5253963 37.4802392,36.9836413 37.4802392,36.3111178 L37.4802392,28.8386348 C37.4802392,28.1698475 38.0273412,27.6243563 38.7018506,27.6243563 C39.3726128,27.6243563 39.9197148,28.1698475 39.9197148,28.8386348 L39.9197148,36.3111178 C39.9197148,36.9836413 39.3726128,37.5253963 38.7018506,37.5253963 M49.7825412,40.4359285 C49.2391864,40.4359285 48.7482935,40.0735131 48.6021498,39.5317581 C48.1674659,37.8840755 46.8259417,36.5278199 45.1846355,36.0794709 C44.8736117,35.9935373 44.5700825,35.9412299 44.2703005,35.9076038 C43.5995384,35.8440877 43.1123927,35.2500252 43.1798436,34.581238 C43.2435473,33.9124508 43.8468585,33.3819045 44.5101261,33.4939917 C44.9448099,33.5350904 45.3869883,33.6172877 45.832914,33.7405837 C48.291126,34.4093709 50.3034124,36.4418863 50.9591854,38.911542 C51.13156,39.5579117 50.7418435,40.2229627 50.093565,40.3948298 C49.9886413,40.4209835 49.8837176,40.4359285 49.7825412,40.4359285 M1.22161147,41.4222963 C0.547102072,41.4222963 -2.22044605e-16,40.876805 -2.22044605e-16,40.2080178 L-2.22044605e-16,32.7355347 C-2.22044605e-16,32.0630112 0.547102072,31.5212562 1.22161147,31.5212562 C1.8923736,31.5212562 2.43947568,32.0630112 2.43947568,32.7355347 L2.43947568,40.2080178 C2.43947568,40.876805 1.8923736,41.4222963 1.22161147,41.4222963 M43.7531766,48.3380794 C42.4641142,48.3343431 41.2012827,48.0018176 40.0883422,47.3666566 C39.5000201,47.0341311 39.3014146,46.2943552 39.634922,45.7115016 C39.9646821,45.1286479 40.714137,44.9268908 41.2949646,45.2594163 C43.048689,46.2532566 45.3570101,46.0664445 46.9421072,44.7737049 C47.4629783,44.3552459 48.2311696,44.4299707 48.6583589,44.945572 C49.0818009,45.4649096 49.0068554,46.2308391 48.4859843,46.6530344 C47.1519546,47.7402807 45.4731756,48.3380794 43.7531766,48.3380794 M1.22161147,56.3672624 C0.547102072,56.3672624 -2.22044605e-16,55.8255074 -2.22044605e-16,55.1529839 L-2.22044605e-16,47.6805009 C-2.22044605e-16,47.0079774 0.547102072,46.4662224 1.22161147,46.4662224 C1.8923736,46.4662224 2.43947568,47.0079774 2.43947568,47.6805009 L2.43947568,55.1529839 C2.43947568,55.8255074 1.8923736,56.3672624 1.22161147,56.3672624 M26.3995486,56.3971524 C26.3770649,56.3971524 26.3545813,56.3971524 26.3283504,56.3934161 C25.6575882,56.3560537 25.1442116,55.7806725 25.1854317,55.108149 L25.1929262,54.8017772 C25.1929262,54.2973846 25.121728,53.7855195 24.971837,53.2848632 C24.5858677,51.9622337 23.5890927,50.82268 22.3075249,50.2360901 C21.6929719,49.955872 21.4269154,49.2347773 21.7042137,48.62577 C21.9890065,48.0130264 22.7159778,47.7514894 23.3230363,48.0279713 C25.2378935,48.9022518 26.7293087,50.6134505 27.3101363,52.6048672 C27.5199837,53.3222256 27.6286546,54.0620014 27.6286546,54.8017772 L27.6174128,55.2575987 C27.57994,55.896496 27.0403325,56.3971524 26.3995486,56.3971524 M38.7018506,58 C38.0273412,58 37.4802392,57.4545087 37.4802392,56.7857215 L37.4802392,49.3132384 C37.4802392,48.6407149 38.0273412,48.0989599 38.7018506,48.0989599 C39.3726128,48.0989599 39.9197148,48.6407149 39.9197148,49.3132384 L39.9197148,56.7857215 C39.9197148,57.4545087 39.3726128,58 38.7018506,58" id="Fill-13" fill="#00B388"></path>
                        <path d="M74.3597626,42.5774818 C74.6535569,42.5774818 74.9473512,42.6844843 75.1733469,42.8908463 C75.5726058,43.250069 75.6969034,43.8271183 75.4822076,44.3200942 C74.8155204,45.852523 74.9096853,47.5530986 75.7345693,48.986168 C76.5293207,50.3619146 77.8852945,51.2676144 79.4521975,51.4739764 C81.0228672,51.6688738 82.5897703,51.1223967 83.7498812,49.9453691 C84.9589579,48.7148402 85.4523817,46.8346532 85.0079236,45.1531852 C84.3261701,42.5621958 82.2658432,41.4615985 80.5708759,41.2972732 C80.0397862,41.2437719 79.6066279,40.8539771 79.4936301,40.3266075 C79.3768657,39.8030595 79.6103945,39.2604039 80.0699189,38.9890761 L92.1004199,31.8275509 L76.2920252,4.48458748 C75.7534023,3.55213702 74.8946189,2.89101436 73.8663388,2.61968656 C72.8418252,2.34453724 71.7683459,2.49357645 70.8530636,3.04387509 L43.8955509,19.0789658 L49.5944075,28.93084 C50.2271953,27.8378858 51.1198781,26.9207214 52.2159569,26.2672418 C54.246151,25.059642 56.6643043,24.8838521 58.8263292,25.7742659 C61.0071871,26.6685012 62.6305891,28.5295806 63.2784433,30.8836358 C63.9601968,33.325586 63.2859764,36.1114729 61.5608764,37.9801953 C60.1107378,39.5355533 58.2086078,40.3839303 56.2386792,40.4297885 L61.7153068,49.9033324 L73.7420412,42.7494501 C73.9341375,42.6309831 74.1488333,42.5774818 74.3597626,42.5774818 L74.3597626,42.5774818 Z M80.0962851,54 C79.7798912,54 79.4597307,53.9770709 79.1395703,53.9350342 C76.8155818,53.6331342 74.8042206,52.2879598 73.6177436,50.239626 C72.9246903,49.0358477 72.5856968,47.6715657 72.6045298,46.3034622 L61.8961033,52.6739332 C61.6211419,52.8382584 61.2934483,52.8879382 60.9695212,52.8076863 C60.6568939,52.7236129 60.3856991,52.5172509 60.219969,52.2344585 L52.8148453,39.4170862 C52.5511838,38.9623255 52.6001495,38.3929193 52.9316098,37.9916599 C53.2593034,37.5904005 53.8054595,37.4451828 54.2875836,37.6209726 C56.268812,38.3508826 58.3178391,37.8464422 59.7755109,36.2757982 C60.9243221,35.0376262 61.3725467,33.1803683 60.9205555,31.5524015 C60.479864,29.9473639 59.3837851,28.6786198 57.9110469,28.0748199 C56.4458419,27.4786631 54.8186733,27.5971301 53.4626995,28.407292 C52.178291,29.1715957 51.3006746,30.493841 51.0596126,32.0262698 C50.9729809,32.5421748 50.5812551,32.9510772 50.072765,33.0504367 C49.5755746,33.1574392 49.052018,32.9090405 48.792123,32.4581014 L41.1685369,19.2662202 C41.0028068,18.9796064 40.9576077,18.6433128 41.0404727,18.3223052 C41.1195712,18.0051192 41.3267339,17.7299699 41.6054618,17.5656446 L69.6176208,0.900003326 C71.0941256,0.0172326005 72.8192257,-0.22734457 74.4878268,0.215951552 C76.1451281,0.655426155 77.5387678,1.72545128 78.4050844,3.22730797 L94.8312005,31.6402965 C95.1739606,32.2326318 94.9780977,32.9931139 94.3942756,33.3408721 L83.6896157,39.7151646 C85.4712146,40.6972948 86.8158887,42.3978705 87.3733446,44.5111701 C88.0362651,47.0333722 87.2942461,49.8536527 85.4825144,51.6956245 C85.4825144,51.6956245 85.4787478,51.6956245 85.4787478,51.699446 C84.0135428,53.1860166 82.0925799,54 80.0962851,54 L80.0962851,54 Z" id="Fill-15" fill="#00B388"></path>
                    </g>
                </g>
            </g>
        </g>
    </g>
</svg>