<?xml version="1.0" encoding="UTF-8"?>
<svg width="114px" height="89px" viewBox="0 0 114 89" version="1.1" xmlns="http://www.w3.org/2000/svg" xmlns:xlink="http://www.w3.org/1999/xlink">
    <!-- Generator: Sketch 61.1 (89650) - https://sketch.com -->
    <title>ill_Client Management</title>
    <desc>Created with Sketch.</desc>
    <g id="Page-1" stroke="none" stroke-width="1" fill="none" fill-rule="evenodd">
        <g id="Projects-&amp;-Client-CRM" transform="translate(-250.000000, -1153.000000)">
            <g id="02.Save-hours-running" transform="translate(250.000000, 950.000000)">
                <g id="Client-Management" transform="translate(0.000000, 203.000000)">
                    <g id="ill_Client-Management">
                        <path d="M74,25.0017335 C74,34.3901295 66.3891131,42 56.9980394,42 C47.614808,42 40,34.3901295 40,25.0017335 C40,15.6133374 47.614808,8 56.9980394,8 C66.3891131,8 74,15.6133374 74,25.0017335 Z" id="Stroke-29" stroke="#00B388" stroke-width="2" stroke-linecap="round" stroke-linejoin="round"></path>
                        <path d="M84,78.93119 C84,78.93119 73.686013,88 56.4920692,88 C42.9859409,88 29,78.93119 29,78.93119 L29,71.2150559 C29,58.3940404 38.294881,48 49.7509012,48 L63.2451334,48 C74.7011536,48 84,58.3940404 84,71.2150559 L84,78.93119 Z" id="Stroke-31" stroke="#00B388" stroke-width="2" stroke-linecap="round" stroke-linejoin="round"></path>
                        <path d="M89.8822914,0 C82.3253989,0 76.1182318,5.52151463 75,12.7091222 C77.2482344,15.9621343 78.5861889,19.8898451 78.5861889,24.1273666 C78.5861889,24.3545611 78.5194873,24.5679862 78.5194873,24.7917384 C81.2934868,27.9586919 85.3269683,30 89.8822914,30 C98.2317552,30 105,23.2839931 105,14.9982788 C105,6.71600688 98.2317552,0 89.8822914,0" id="Fill-33" fill="#A7E0FE"></path>
                        <path d="M95.5300924,35 L83.5266385,35 C79.4672308,35 75.7494171,36.5251545 72.6989034,39.0353045 C71.8131422,40.135481 70.8519126,41.1323919 69.7953545,42.0339806 C69.1320266,42.8640777 68.5481392,43.7815534 68,44.7268314 C79.7254123,46.4346867 88.8292894,57.4205649 89.3297643,70.9920565 C89.3972887,70.9960282 89.4648131,71 89.5204214,71 C104.828599,71 114,62.8459841 114,62.8459841 L114,55.8993822 C114,44.3534863 105.726276,35 95.5300924,35" id="Fill-35" fill="#A7E0FE"></path>
                        <path d="M24.1177086,0 C31.6785247,0 37.8856919,5.52151463 39,12.7091222 C36.747842,15.9621343 35.4177348,19.8898451 35.4177348,24.1273666 C35.4177348,24.3545611 35.4805127,24.5679862 35.4805127,24.7917384 C32.7065132,27.9586919 28.6769553,30 24.1177086,30 C15.7721685,30 9,23.2839931 9,14.9982788 C9,6.71600688 15.7721685,0 24.1177086,0" id="Fill-37" fill="#A7E0FE"></path>
                        <path d="M18.475475,35 L30.4759931,35 C34.5397237,35 38.253886,36.5251545 41.3086356,39.0353045 C42.1905009,40.135481 43.1557858,41.1323919 44.2084629,42.0339806 C44.871848,42.8640777 45.4597582,43.7815534 46,44.7268314 C34.2815199,46.4346867 25.1768566,57.4205649 24.6723661,70.9920565 C24.6048359,70.9960282 24.5373057,71 24.4777202,71 C9.1761658,71 0,62.8459841 0,62.8459841 L0,55.8993822 C0,44.3534863 8.27046632,35 18.475475,35" id="Fill-39" fill="#A7E0FE"></path>
                    </g>
                </g>
            </g>
        </g>
    </g>
</svg>