<?xml version="1.0" encoding="UTF-8"?>
<svg width="99px" height="91px" viewBox="0 0 99 91" version="1.1" xmlns="http://www.w3.org/2000/svg" xmlns:xlink="http://www.w3.org/1999/xlink">
    <!-- Generator: Sketch 61.1 (89650) - https://sketch.com -->
    <title>ill_Free Collaboration</title>
    <desc>Created with Sketch.</desc>
    <g id="Page-1" stroke="none" stroke-width="1" fill="none" fill-rule="evenodd">
        <g id="Projects-&amp;-Client-CRM" transform="translate(-1091.000000, -1149.000000)">
            <g id="02.Save-hours-running" transform="translate(250.000000, 950.000000)">
                <g id="Free-Collaboration" transform="translate(842.000000, 200.000000)">
                    <g id="ill_Free-Collaboration">
                        <path d="M80.7562038,30.31875 C72.4554346,30.31875 65.7348577,23.7619038 65.7348577,15.6743654 C65.7348577,7.58682692 72.4554346,1.02998077 80.7562038,1.02998077 C89.0493577,1.02998077 95.7699346,7.58682692 95.7699346,15.6743654 C95.7699346,23.7619038 89.0493577,30.31875 80.7562038,30.31875" id="Fill-41" fill="#A7E0FE"></path>
                        <path d="M44.1498115,60.8697692 L69.9431192,37.9969615 C70.2248885,37.7494615 70.5218885,37.5362308 70.8303115,37.3420385 C73.5908885,35.2592308 77.0292346,34.0255385 80.7531577,34.0255385 C89.8649654,34.0255385 97.2480808,41.4124615 97.2480808,50.5204615 L97.2480808,88.6468846 C97.2480808,89.1571154 96.83685,89.5721538 96.3266192,89.5721538 L65.1796962,89.5721538 C64.6694654,89.5721538 64.2544269,89.1571154 64.2544269,88.6468846 L64.2544269,60.4090385 L52.7704269,70.5946154 C50.0860038,72.9744231 45.9775038,72.7231154 43.5976962,70.0386923 C41.2140808,67.3542692 41.4653885,63.2495769 44.1498115,60.8697692" id="Fill-43" fill="#A7E0FE"></path>
                        <path d="M16.4937808,29.2887692 C24.7907423,29.2887692 31.5113192,22.7319231 31.5113192,14.6443846 C31.5113192,6.55684615 24.7907423,1.35276405e-14 16.4937808,1.35276405e-14 C8.20062692,1.35276405e-14 1.47624231,6.55684615 1.47624231,14.6443846 C1.47624231,22.7319231 8.20062692,29.2887692 16.4937808,29.2887692 Z" id="Stroke-45" stroke="#00B388" stroke-width="2" stroke-linecap="round" stroke-linejoin="round"></path>
                        <path d="M53.0982692,59.8359808 L27.3049615,36.9631731 C27.0231923,36.7194808 26.7261923,36.50625 26.4177692,36.3120577 C23.6571923,34.22925 20.2188462,32.9955577 16.4949231,32.9955577 C7.38311538,32.9955577 1.22560423e-11,40.3824808 1.22560423e-11,49.4904808 L1.22560423e-11,88.5383654 L32.9936538,88.5383654 L32.9936538,59.3790577 L44.4776538,69.5608269 C47.1620769,71.9406346 51.2705769,71.6931346 53.6503846,69.0087115 C56.0301923,66.3242885 55.7826923,62.2195962 53.0982692,59.8359808 Z" id="Stroke-47" stroke="#00B388" stroke-width="2" stroke-linecap="round" stroke-linejoin="round"></path>
                    </g>
                </g>
            </g>
        </g>
    </g>
</svg>